<mxfile host="app.diagrams.net" modified="2023-09-28T09:11:13.576Z" agent="Mozilla/5.0 (X11; Ubuntu; Linux x86_64; rv:109.0) Gecko/20100101 Firefox/117.0" etag="wufuwyvmxFEiJGFnxUIX" version="21.6.3">
  <diagram name="Page-1" id="ubRE17eAhZJPNsEkqlL0">
    <mxGraphModel dx="2284" dy="766" grid="1" gridSize="10" guides="1" tooltips="1" connect="1" arrows="1" fold="1" page="1" pageScale="1" pageWidth="850" pageHeight="1100" math="0" shadow="0">
      <root>
        <mxCell id="0" />
        <mxCell id="1" parent="0" />
        <mxCell id="8x1_-9uiM2_w4BOdTF4C-4" value="" style="group" vertex="1" connectable="0" parent="1">
          <mxGeometry x="180" y="410" width="220" height="76" as="geometry" />
        </mxCell>
        <mxCell id="8x1_-9uiM2_w4BOdTF4C-2" value="&lt;div&gt;«interface»&lt;b&gt;&lt;br&gt;&lt;/b&gt;&lt;/div&gt;&lt;div&gt;&lt;b&gt;Policy Engine&lt;br&gt;&lt;/b&gt;&lt;/div&gt;" style="html=1;whiteSpace=wrap;" vertex="1" parent="8x1_-9uiM2_w4BOdTF4C-4">
          <mxGeometry width="220" height="50" as="geometry" />
        </mxCell>
        <mxCell id="8x1_-9uiM2_w4BOdTF4C-3" value="+ evaluate(Request): Decision " style="text;strokeColor=none;fillColor=none;align=left;verticalAlign=top;spacingLeft=4;spacingRight=4;overflow=hidden;rotatable=0;points=[[0,0.5],[1,0.5]];portConstraint=eastwest;whiteSpace=wrap;html=1;" vertex="1" parent="8x1_-9uiM2_w4BOdTF4C-4">
          <mxGeometry y="50" width="220" height="26" as="geometry" />
        </mxCell>
        <mxCell id="8x1_-9uiM2_w4BOdTF4C-6" value="" style="group" vertex="1" connectable="0" parent="1">
          <mxGeometry x="190" y="274" width="220" height="76" as="geometry" />
        </mxCell>
        <mxCell id="8x1_-9uiM2_w4BOdTF4C-1" value="&lt;div&gt;«interface»&lt;b&gt;&lt;br&gt;&lt;/b&gt;&lt;/div&gt;&lt;div&gt;&lt;b&gt;Policy Enforcement Point&lt;br&gt;&lt;/b&gt;&lt;/div&gt;" style="html=1;whiteSpace=wrap;" vertex="1" parent="8x1_-9uiM2_w4BOdTF4C-6">
          <mxGeometry width="220" height="50" as="geometry" />
        </mxCell>
        <mxCell id="8x1_-9uiM2_w4BOdTF4C-5" value="+ dispatch(Request): Response" style="text;strokeColor=none;fillColor=none;align=left;verticalAlign=top;spacingLeft=4;spacingRight=4;overflow=hidden;rotatable=0;points=[[0,0.5],[1,0.5]];portConstraint=eastwest;whiteSpace=wrap;html=1;" vertex="1" parent="8x1_-9uiM2_w4BOdTF4C-6">
          <mxGeometry y="50" width="220" height="26" as="geometry" />
        </mxCell>
        <mxCell id="8x1_-9uiM2_w4BOdTF4C-13" value="" style="group" vertex="1" connectable="0" parent="1">
          <mxGeometry x="150" y="540" width="220" height="156" as="geometry" />
        </mxCell>
        <mxCell id="8x1_-9uiM2_w4BOdTF4C-7" value="«interface»&lt;br&gt;&lt;b&gt;Policy Administrator&lt;/b&gt;" style="html=1;whiteSpace=wrap;" vertex="1" parent="8x1_-9uiM2_w4BOdTF4C-13">
          <mxGeometry width="220" height="50" as="geometry" />
        </mxCell>
        <mxCell id="8x1_-9uiM2_w4BOdTF4C-8" value="+ register(Rule): void&amp;nbsp; " style="text;strokeColor=none;fillColor=none;align=left;verticalAlign=top;spacingLeft=4;spacingRight=4;overflow=hidden;rotatable=0;points=[[0,0.5],[1,0.5]];portConstraint=eastwest;whiteSpace=wrap;html=1;" vertex="1" parent="8x1_-9uiM2_w4BOdTF4C-13">
          <mxGeometry y="50" width="220" height="26" as="geometry" />
        </mxCell>
        <mxCell id="8x1_-9uiM2_w4BOdTF4C-9" value="+ item: attribute" style="text;strokeColor=none;fillColor=none;align=left;verticalAlign=top;spacingLeft=4;spacingRight=4;overflow=hidden;rotatable=0;points=[[0,0.5],[1,0.5]];portConstraint=eastwest;whiteSpace=wrap;html=1;" vertex="1" parent="8x1_-9uiM2_w4BOdTF4C-13">
          <mxGeometry y="70" width="220" height="26" as="geometry" />
        </mxCell>
        <mxCell id="8x1_-9uiM2_w4BOdTF4C-10" value="+ item: attribute" style="text;strokeColor=none;fillColor=none;align=left;verticalAlign=top;spacingLeft=4;spacingRight=4;overflow=hidden;rotatable=0;points=[[0,0.5],[1,0.5]];portConstraint=eastwest;whiteSpace=wrap;html=1;" vertex="1" parent="8x1_-9uiM2_w4BOdTF4C-13">
          <mxGeometry y="90" width="220" height="26" as="geometry" />
        </mxCell>
        <mxCell id="8x1_-9uiM2_w4BOdTF4C-11" value="+ item: attribute" style="text;strokeColor=none;fillColor=none;align=left;verticalAlign=top;spacingLeft=4;spacingRight=4;overflow=hidden;rotatable=0;points=[[0,0.5],[1,0.5]];portConstraint=eastwest;whiteSpace=wrap;html=1;" vertex="1" parent="8x1_-9uiM2_w4BOdTF4C-13">
          <mxGeometry y="110" width="220" height="26" as="geometry" />
        </mxCell>
        <mxCell id="8x1_-9uiM2_w4BOdTF4C-12" value="+ item: attribute" style="text;strokeColor=none;fillColor=none;align=left;verticalAlign=top;spacingLeft=4;spacingRight=4;overflow=hidden;rotatable=0;points=[[0,0.5],[1,0.5]];portConstraint=eastwest;whiteSpace=wrap;html=1;" vertex="1" parent="8x1_-9uiM2_w4BOdTF4C-13">
          <mxGeometry y="130" width="220" height="26" as="geometry" />
        </mxCell>
        <object label="Policy Decision Point" policyEngine="PolicyEngine" policyAdministrator="PolicyAdministrator" id="8x1_-9uiM2_w4BOdTF4C-25">
          <mxCell style="swimlane;fontStyle=1;align=center;verticalAlign=top;childLayout=stackLayout;horizontal=1;startSize=26;horizontalStack=0;resizeParent=1;resizeParentMax=0;resizeLast=0;collapsible=1;marginBottom=0;whiteSpace=wrap;html=1;" vertex="1" parent="1">
            <mxGeometry x="-290" y="350" width="270" height="112" as="geometry" />
          </mxCell>
        </object>
        <mxCell id="8x1_-9uiM2_w4BOdTF4C-26" value="+ policyEngine: PolicyEngine" style="text;strokeColor=none;fillColor=none;align=left;verticalAlign=top;spacingLeft=4;spacingRight=4;overflow=hidden;rotatable=0;points=[[0,0.5],[1,0.5]];portConstraint=eastwest;whiteSpace=wrap;html=1;" vertex="1" parent="8x1_-9uiM2_w4BOdTF4C-25">
          <mxGeometry y="26" width="270" height="26" as="geometry" />
        </mxCell>
        <mxCell id="8x1_-9uiM2_w4BOdTF4C-29" value="+ policyAdministrator: PolicyAdministrator" style="text;strokeColor=none;fillColor=none;align=left;verticalAlign=top;spacingLeft=4;spacingRight=4;overflow=hidden;rotatable=0;points=[[0,0.5],[1,0.5]];portConstraint=eastwest;whiteSpace=wrap;html=1;" vertex="1" parent="8x1_-9uiM2_w4BOdTF4C-25">
          <mxGeometry y="52" width="270" height="26" as="geometry" />
        </mxCell>
        <mxCell id="8x1_-9uiM2_w4BOdTF4C-27" value="" style="line;strokeWidth=1;fillColor=none;align=left;verticalAlign=middle;spacingTop=-1;spacingLeft=3;spacingRight=3;rotatable=0;labelPosition=right;points=[];portConstraint=eastwest;strokeColor=inherit;" vertex="1" parent="8x1_-9uiM2_w4BOdTF4C-25">
          <mxGeometry y="78" width="270" height="8" as="geometry" />
        </mxCell>
        <mxCell id="8x1_-9uiM2_w4BOdTF4C-28" value="+ method(type): type" style="text;strokeColor=none;fillColor=none;align=left;verticalAlign=top;spacingLeft=4;spacingRight=4;overflow=hidden;rotatable=0;points=[[0,0.5],[1,0.5]];portConstraint=eastwest;whiteSpace=wrap;html=1;" vertex="1" parent="8x1_-9uiM2_w4BOdTF4C-25">
          <mxGeometry y="86" width="270" height="26" as="geometry" />
        </mxCell>
        <mxCell id="8x1_-9uiM2_w4BOdTF4C-30" value="" style="endArrow=diamondThin;endFill=1;endSize=24;html=1;rounded=0;" edge="1" parent="1" source="8x1_-9uiM2_w4BOdTF4C-25" target="8x1_-9uiM2_w4BOdTF4C-7">
          <mxGeometry width="160" relative="1" as="geometry">
            <mxPoint x="140" y="400" as="sourcePoint" />
            <mxPoint x="300" y="400" as="targetPoint" />
          </mxGeometry>
        </mxCell>
        <mxCell id="8x1_-9uiM2_w4BOdTF4C-31" value="" style="endArrow=diamondThin;endFill=1;endSize=24;html=1;rounded=0;" edge="1" parent="1" source="8x1_-9uiM2_w4BOdTF4C-25" target="8x1_-9uiM2_w4BOdTF4C-2">
          <mxGeometry width="160" relative="1" as="geometry">
            <mxPoint x="-6" y="379" as="sourcePoint" />
            <mxPoint x="180" y="370" as="targetPoint" />
          </mxGeometry>
        </mxCell>
        <mxCell id="8x1_-9uiM2_w4BOdTF4C-33" value="Use" style="endArrow=open;endSize=12;dashed=1;html=1;rounded=0;entryX=0.567;entryY=-0.009;entryDx=0;entryDy=0;entryPerimeter=0;" edge="1" parent="1" source="8x1_-9uiM2_w4BOdTF4C-1" target="8x1_-9uiM2_w4BOdTF4C-25">
          <mxGeometry width="160" relative="1" as="geometry">
            <mxPoint x="140" y="400" as="sourcePoint" />
            <mxPoint x="300" y="400" as="targetPoint" />
          </mxGeometry>
        </mxCell>
        <mxCell id="8x1_-9uiM2_w4BOdTF4C-34" value="&lt;div&gt;«interface»&lt;b&gt;&lt;br&gt;&lt;/b&gt;&lt;/div&gt;&lt;div&gt;&lt;b&gt;TrustAlgorithm&lt;/b&gt;&lt;/div&gt;" style="html=1;whiteSpace=wrap;" vertex="1" parent="1">
          <mxGeometry x="530" y="410" width="110" height="50" as="geometry" />
        </mxCell>
        <mxCell id="8x1_-9uiM2_w4BOdTF4C-35" value="" style="endArrow=diamondThin;endFill=0;endSize=24;html=1;rounded=0;" edge="1" parent="1" source="8x1_-9uiM2_w4BOdTF4C-2" target="8x1_-9uiM2_w4BOdTF4C-34">
          <mxGeometry width="160" relative="1" as="geometry">
            <mxPoint x="140" y="400" as="sourcePoint" />
            <mxPoint x="300" y="400" as="targetPoint" />
          </mxGeometry>
        </mxCell>
      </root>
    </mxGraphModel>
  </diagram>
</mxfile>
